<svg xmlns="http://www.w3.org/2000/svg" xmlns:xlink="http://www.w3.org/1999/xlink" width="968" height="719" viewBox="0 0 968 719">
  <defs>
    <clipPath id="clip-path">
      <path id="bg" d="M0,0H968a0,0,0,0,1,0,0V719a0,0,0,0,1,0,0H80A80,80,0,0,1,0,639V0A0,0,0,0,1,0,0Z" transform="translate(-0.192 78.5)" fill="#d47fa6"/>
    </clipPath>
  </defs>
  <g id="Mask_Group_5" data-name="Mask Group 5" transform="translate(0.192 -78.5)" opacity="0.78" clip-path="url(#clip-path)" style="mix-blend-mode: overlay;isolation: isolate">
    <path id="path" d="M1832.582,487.6c-54.021-2.239-56.327-54.257-110.232-54.9s-66.248,66.548-107.562,66.865-81.894-95.914-144.635-99.765-91.575,49.677-161.347,49.137S1192.88,370.1,1113.42,365.824s-98.249,59.394-166.8,57.576-110-175.062-229.2-183.613S579.766,352.69,458.388,353.65,393.036,407.7,276.754,409.729-15.9,581.06-15.9,581.06H1915.313Z" transform="translate(663.33 217.651)" fill="#ffc1dd" opacity="0.177"/>
    <path id="path-2" data-name="path" d="M89.277,486.915c68.674-2.232,71.606-54.108,140.133-54.749s84.218,66.364,136.738,66.681,104.108-95.65,183.868-99.491,116.415,49.54,205.112,49,147.37-78.621,248.384-82.881,124.9,59.231,212.049,57.418S1355.4,248.314,1506.932,239.787s174.986,112.591,329.289,113.549,83.078,53.9,230.9,55.924,372.031,170.859,372.031,170.859H-15.9Z" transform="translate(-825.178 217.651)" fill="#fff" opacity="0.159"/>
  </g>
</svg>
